<svg width="322" height="258" viewBox="0 0 322 258" fill="none" xmlns="http://www.w3.org/2000/svg">
<mask id="path-1-inside-1_2_614" fill="white">
<path d="M6 60.5C6 52.2157 12.7157 45.5 21 45.5H36.9468C50.7539 45.5 61.9467 56.6929 61.9467 70.5V79.5H6V60.5Z"/>
</mask>
<path d="M6 60.5C6 52.2157 12.7157 45.5 21 45.5H36.9468C50.7539 45.5 61.9467 56.6929 61.9467 70.5V79.5H6V60.5Z" fill="url(#paint0_linear_2_614)"/>
<path d="M5 60.5C5 51.6634 12.1634 44.5 21 44.5H36.9467C51.3061 44.5 62.9467 56.1406 62.9467 70.5H60.9467C60.9467 57.2452 50.2016 46.5 36.9467 46.5H21C13.268 46.5 7 52.768 7 60.5H5ZM7 60.5M61.9467 79.5H6H61.9467M5 79.5V60.5C5 51.6634 12.1634 44.5 21 44.5V46.5C13.268 46.5 7 52.768 7 60.5V79.5H5ZM36.9467 44.5C51.3061 44.5 62.9467 56.1406 62.9467 70.5V79.5H60.9467V70.5C60.9467 57.2452 50.2016 46.5 36.9467 46.5V44.5Z" fill="black" mask="url(#path-1-inside-1_2_614)"/>
<mask id="path-3-inside-2_2_614" fill="white">
<path d="M124.314 67.8787C124.314 55.5193 134.333 45.5 146.692 45.5C165.231 45.5 180.26 60.5289 180.26 79.0681V79.5H124.314V67.8787Z"/>
</mask>
<path d="M124.314 67.8787C124.314 55.5193 134.333 45.5 146.692 45.5C165.231 45.5 180.26 60.5289 180.26 79.0681V79.5H124.314V67.8787Z" fill="url(#paint1_linear_2_614)"/>
<path d="M123.314 67.8787C123.314 54.967 133.781 44.5 146.692 44.5H146.692C165.784 44.5 181.26 59.9766 181.26 79.068H179.26C179.26 61.0812 164.679 46.5 146.692 46.5H146.692C134.885 46.5 125.314 56.0716 125.314 67.8787H123.314ZM125.314 67.8787M180.26 79.5H124.314H180.26M123.314 79.5V67.8787C123.314 54.967 133.781 44.5 146.692 44.5V46.5C134.885 46.5 125.314 56.0716 125.314 67.8787V79.5H123.314ZM146.692 44.5C165.784 44.5 181.26 59.9766 181.26 79.068V79.5H179.26V79.068C179.26 61.0812 164.679 46.5 146.692 46.5V44.5Z" fill="black" mask="url(#path-3-inside-2_2_614)"/>
<mask id="path-5-inside-3_2_614" fill="white">
<path d="M229.787 69.4772C229.787 56.235 240.522 45.5 253.764 45.5C271.42 45.5 285.734 59.8133 285.734 77.4696V79.5H229.787V69.4772Z"/>
</mask>
<path d="M229.787 69.4772C229.787 56.235 240.522 45.5 253.764 45.5C271.42 45.5 285.734 59.8133 285.734 77.4696V79.5H229.787V69.4772Z" fill="url(#paint2_linear_2_614)"/>
<path d="M228.787 69.4772C228.787 55.6827 239.97 44.5 253.764 44.5C271.973 44.5 286.734 59.261 286.734 77.4696H284.734C284.734 60.3655 270.868 46.5 253.764 46.5C241.074 46.5 230.787 56.7872 230.787 69.4772H228.787ZM230.787 69.4772M285.734 79.5H229.787H285.734M228.787 79.5V69.4772C228.787 55.6827 239.97 44.5 253.764 44.5V46.5C241.074 46.5 230.787 56.7872 230.787 69.4772V79.5H228.787ZM253.764 44.5C271.973 44.5 286.734 59.261 286.734 77.4696V79.5H284.734V77.4696C284.734 60.3655 270.868 46.5 253.764 46.5V44.5Z" fill="black" mask="url(#path-5-inside-3_2_614)"/>
<path d="M254.479 22.6309C255.067 21.6583 256.48 21.6657 257.057 22.6445L269.716 44.1416C269.765 44.2251 269.806 44.3139 269.838 44.4053L273.292 54.2119C273.605 55.1013 273.029 56.0561 272.097 56.1943L264.773 57.2793L249.654 57.9902C249.545 57.9954 249.435 57.9885 249.327 57.9697L239.509 56.2617C238.572 56.0987 238.021 55.1158 238.371 54.2314L243.987 40.0605C244.018 39.9837 244.055 39.9097 244.098 39.8389L254.479 22.6309Z" fill="url(#paint3_linear_2_614)" stroke="black"/>
<line x1="1.5" y1="-1.5" x2="9.34234" y2="-1.5" transform="matrix(-0.500136 0.865947 -0.938221 -0.346038 253.073 28.1667)" stroke="white" stroke-width="3" stroke-linecap="round"/>
<line x1="1.5" y1="-1.5" x2="6.66795" y2="-1.5" transform="matrix(-0.357386 -0.933957 0.971418 -0.237376 269.549 53.1285)" stroke="#4A3D2E" stroke-width="3" stroke-linecap="round"/>
<line x1="1.5" y1="-1.5" x2="1.52696" y2="-1.5" transform="matrix(-0.298572 -0.954387 0.980623 -0.195906 265.726 44.0556)" stroke="#4A3D2E" stroke-width="3" stroke-linecap="round"/>
<mask id="path-11-inside-4_2_614" fill="white">
<path d="M154.58 79.0681C154.58 60.5289 169.609 45.5 188.148 45.5C200.507 45.5 210.527 55.5193 210.527 67.8787V79.5H154.58V79.0681Z"/>
</mask>
<path d="M154.58 79.0681C154.58 60.5289 169.609 45.5 188.148 45.5C200.507 45.5 210.527 55.5193 210.527 67.8787V79.5H154.58V79.0681Z" fill="url(#paint4_linear_2_614)"/>
<path d="M153.58 79.068C153.58 59.9766 169.057 44.5 188.148 44.5V44.5C201.06 44.5 211.527 54.967 211.527 67.8787H209.527C209.527 56.0716 199.955 46.5 188.148 46.5V46.5C170.161 46.5 155.58 61.0812 155.58 79.068H153.58ZM155.58 79.068M210.527 79.5H154.58H210.527M153.58 79.5V79.068C153.58 59.9766 169.057 44.5 188.148 44.5V46.5C170.161 46.5 155.58 61.0812 155.58 79.068V79.5H153.58ZM188.148 44.5C201.06 44.5 211.527 54.967 211.527 67.8787V79.5H209.527V67.8787C209.527 56.0716 199.955 46.5 188.148 46.5V44.5Z" fill="black" mask="url(#path-11-inside-4_2_614)"/>
<mask id="path-13-inside-5_2_614" fill="white">
<path d="M191.266 70.5C191.266 56.6929 202.459 45.5 216.266 45.5H232.213C240.497 45.5 247.213 52.2157 247.213 60.5V79.5H191.266V70.5Z"/>
</mask>
<path d="M191.266 70.5C191.266 56.6929 202.459 45.5 216.266 45.5H232.213C240.497 45.5 247.213 52.2157 247.213 60.5V79.5H191.266V70.5Z" fill="url(#paint5_linear_2_614)"/>
<path d="M190.266 70.5C190.266 56.1406 201.907 44.5 216.266 44.5H232.213C241.05 44.5 248.213 51.6634 248.213 60.5H246.213C246.213 52.768 239.945 46.5 232.213 46.5H216.266C203.011 46.5 192.266 57.2452 192.266 70.5H190.266ZM192.266 70.5M247.213 79.5H191.266H247.213M190.266 79.5V70.5C190.266 56.1406 201.907 44.5 216.266 44.5V46.5C203.011 46.5 192.266 57.2452 192.266 70.5V79.5H190.266ZM232.213 44.5C241.05 44.5 248.213 51.6634 248.213 60.5V79.5H246.213V60.5C246.213 52.768 239.945 46.5 232.213 46.5V44.5Z" fill="black" mask="url(#path-13-inside-5_2_614)"/>
<path d="M220.479 24.6309C221.067 23.6583 222.48 23.6657 223.057 24.6445L235.716 46.1416C235.765 46.2251 235.806 46.3139 235.838 46.4053L239.292 56.2119C239.605 57.1013 239.029 58.0561 238.097 58.1943L230.773 59.2793L215.654 59.9902C215.545 59.9954 215.435 59.9885 215.327 59.9697L205.509 58.2617C204.572 58.0987 204.021 57.1158 204.371 56.2314L209.987 42.0605C210.018 41.9837 210.055 41.9097 210.098 41.8389L220.479 24.6309Z" fill="url(#paint6_linear_2_614)" stroke="black"/>
<line x1="1.5" y1="-1.5" x2="9.34234" y2="-1.5" transform="matrix(-0.500136 0.865947 -0.938221 -0.346038 219.073 30.1667)" stroke="white" stroke-width="3" stroke-linecap="round"/>
<line x1="1.5" y1="-1.5" x2="6.66795" y2="-1.5" transform="matrix(-0.357386 -0.933957 0.971418 -0.237376 235.549 55.1285)" stroke="#4A3D2E" stroke-width="3" stroke-linecap="round"/>
<line x1="1.5" y1="-1.5" x2="1.52696" y2="-1.5" transform="matrix(-0.298572 -0.954387 0.980623 -0.195906 231.726 46.0556)" stroke="#4A3D2E" stroke-width="3" stroke-linecap="round"/>
<mask id="path-19-inside-6_2_614" fill="white">
<path d="M80.2899 75.5C80.2899 58.9315 93.7214 45.5 110.29 45.5H116.237C127.282 45.5 136.237 54.4543 136.237 65.5V79.5H80.2899V75.5Z"/>
</mask>
<path d="M80.2899 75.5C80.2899 58.9315 93.7214 45.5 110.29 45.5H116.237C127.282 45.5 136.237 54.4543 136.237 65.5V79.5H80.2899V75.5Z" fill="url(#paint7_linear_2_614)"/>
<path d="M79.2899 75.5C79.2899 58.3792 93.1691 44.5 110.29 44.5H116.237C127.835 44.5 137.237 53.902 137.237 65.5H135.237C135.237 55.0066 126.73 46.5 116.237 46.5H110.29C94.2737 46.5 81.2899 59.4837 81.2899 75.5H79.2899ZM81.2899 75.5M136.237 79.5H80.2899H136.237M79.2899 79.5V75.5C79.2899 58.3792 93.1691 44.5 110.29 44.5V46.5C94.2737 46.5 81.2899 59.4837 81.2899 75.5V79.5H79.2899ZM116.237 44.5C127.835 44.5 137.237 53.902 137.237 65.5V79.5H135.237V65.5C135.237 55.0066 126.73 46.5 116.237 46.5V44.5Z" fill="black" mask="url(#path-19-inside-6_2_614)"/>
<mask id="path-21-inside-7_2_614" fill="white">
<path d="M43.6036 66.48C43.6036 54.8931 52.9966 45.5 64.5836 45.5H65.5503C84.328 45.5 99.5503 60.7223 99.5503 79.5H43.6036V66.48Z"/>
</mask>
<path d="M43.6036 66.48C43.6036 54.8931 52.9966 45.5 64.5836 45.5H65.5503C84.328 45.5 99.5503 60.7223 99.5503 79.5H43.6036V66.48Z" fill="url(#paint8_linear_2_614)"/>
<path d="M42.6036 66.48C42.6036 54.3408 52.4444 44.5 64.5836 44.5H65.5503C84.8803 44.5 100.55 60.17 100.55 79.5H98.5503C98.5503 61.2746 83.7757 46.5 65.5503 46.5H64.5836C53.5489 46.5 44.6036 55.4454 44.6036 66.48H42.6036ZM44.6036 66.48M99.5503 79.5H43.6036H99.5503M42.6036 79.5V66.48C42.6036 54.3408 52.4444 44.5 64.5836 44.5V46.5C53.5489 46.5 44.6036 55.4454 44.6036 66.48V79.5H42.6036ZM65.5503 44.5C84.8803 44.5 100.55 60.17 100.55 79.5H98.5503C98.5503 61.2746 83.7757 46.5 65.5503 46.5V44.5Z" fill="black" mask="url(#path-21-inside-7_2_614)"/>
<mask id="path-23-inside-8_2_614" fill="white">
<path d="M260.053 75.6252C260.053 58.9875 273.541 45.5 290.178 45.5C304.439 45.5 316 57.0607 316 71.3216V79.5H260.053V75.6252Z"/>
</mask>
<path d="M260.053 75.6252C260.053 58.9875 273.541 45.5 290.178 45.5C304.439 45.5 316 57.0607 316 71.3216V79.5H260.053V75.6252Z" fill="url(#paint9_linear_2_614)"/>
<path d="M259.053 75.6252C259.053 58.4352 272.988 44.5 290.178 44.5C304.992 44.5 317 56.5084 317 71.3216H315C315 57.613 303.887 46.5 290.178 46.5C274.093 46.5 261.053 59.5398 261.053 75.6252H259.053ZM261.053 75.6252M316 79.5H260.053H316M259.053 79.5V75.6252C259.053 58.4352 272.988 44.5 290.178 44.5V46.5C274.093 46.5 261.053 59.5398 261.053 75.6252V79.5H259.053ZM290.178 44.5C304.992 44.5 317 56.5084 317 71.3216V79.5H315V71.3216C315 57.613 303.887 46.5 290.178 46.5V44.5Z" fill="black" mask="url(#path-23-inside-8_2_614)"/>
<path d="M285.321 7.89746C285.682 6.72651 287.219 6.45933 287.954 7.43945L297.464 20.1191C297.532 20.2093 297.589 20.3071 297.635 20.4102L305.462 38.0205C305.502 38.1115 305.534 38.2066 305.556 38.3037L309.63 56.585C309.815 57.4142 309.275 58.2318 308.439 58.3867L299.726 60.002L283.029 60.9844C282.893 60.9924 282.756 60.9822 282.622 60.9531L271.25 58.4775C270.387 58.2897 269.872 57.4013 270.139 56.5596L276.762 35.6514L276.763 35.6475L285.321 7.89746Z" fill="url(#paint10_linear_2_614)" stroke="black"/>
<line x1="288.219" y1="16.3688" x2="284.869" y2="27.4962" stroke="white" stroke-width="3" stroke-linecap="round"/>
<line x1="303.141" y1="53.0668" x2="300.789" y2="45.3731" stroke="#4A3D2E" stroke-width="3" stroke-linecap="round"/>
<line x1="298.966" y1="40.4086" x2="298.693" y2="39.319" stroke="#4A3D2E" stroke-width="3" stroke-linecap="round"/>
<path d="M185.407 20.7945C186.08 19.7979 187.594 19.9591 188.042 21.0751L198.179 46.3065C198.212 46.3896 198.238 46.4759 198.256 46.5636L200.67 58.2903C200.854 59.1826 200.206 60.0315 199.296 60.0898L191.756 60.572L176.666 59.8451C176.543 59.8391 176.421 59.8184 176.303 59.7828L166.607 56.8498C165.731 56.5846 165.294 55.6028 165.684 54.7746L173.061 39.1118C173.094 39.0423 173.132 38.975 173.175 38.9113L185.407 20.7945Z" fill="url(#paint11_linear_2_614)" stroke="black"/>
<line x1="1.5" y1="-1.5" x2="10.3573" y2="-1.5" transform="matrix(-0.544581 0.838708 -0.880627 -0.473809 183.423 26.8031)" stroke="white" stroke-width="3" stroke-linecap="round"/>
<line x1="1.5" y1="-1.5" x2="7.55122" y2="-1.5" transform="matrix(-0.225521 -0.974238 0.986097 -0.16617 196.991 56.3548)" stroke="#4A3D2E" stroke-width="3" stroke-linecap="round"/>
<line x1="1.5" y1="-1.5" x2="1.86803" y2="-1.5" transform="matrix(-0.169934 -0.985455 0.992831 -0.119525 194.214 45.8317)" stroke="#4A3D2E" stroke-width="3" stroke-linecap="round"/>
<path d="M30.1846 3.78516C30.8603 2.72334 32.4645 2.91509 32.8701 4.10645L45.3076 40.6494L49.4941 55.5264C49.7331 56.3756 49.1916 57.2473 48.3242 57.4082L39.7256 59.002L23.0293 59.9844C22.8929 59.9924 22.7556 59.9822 22.6221 59.9531L11.0283 57.4297C10.2285 57.2556 9.71554 56.4725 9.87598 55.6699L13.9492 35.3057C13.9699 35.2022 14.0011 35.1007 14.043 35.0039L21.8955 16.8447C21.9269 16.7721 21.9644 16.7016 22.0068 16.6348L30.1846 3.78516Z" fill="url(#paint12_linear_2_614)" stroke="black"/>
<line x1="24.7334" y1="20.4905" x2="19.9905" y2="30.7666" stroke="white" stroke-width="3" stroke-linecap="round"/>
<line x1="43.1415" y1="52.0668" x2="40.7888" y2="44.3731" stroke="#4A3D2E" stroke-width="3" stroke-linecap="round"/>
<line x1="38.9656" y1="39.4086" x2="38.6932" y2="38.319" stroke="#4A3D2E" stroke-width="3" stroke-linecap="round"/>
<path d="M72.49 24.621C73.185 23.7224 74.5884 23.8924 75.0485 24.9311L85.1505 47.7418C85.1897 47.8304 85.2199 47.9233 85.2414 48.0178L87.5444 58.1567C87.7532 59.0762 87.0714 59.9584 86.1289 59.9884L78.7295 60.2237L63.6289 59.1905C63.5196 59.183 63.4114 59.1635 63.3063 59.1325L53.7496 56.3063C52.8374 56.0365 52.4031 54.9968 52.8531 54.1586L60.0623 40.7279C60.1014 40.655 60.1468 40.5858 60.1974 40.5204L72.49 24.621Z" fill="url(#paint13_linear_2_614)" stroke="black"/>
<line x1="1.5" y1="-1.5" x2="9.34234" y2="-1.5" transform="matrix(-0.596439 0.802659 -0.892181 -0.451678 70.4563 29.9583)" stroke="white" stroke-width="3" stroke-linecap="round"/>
<line x1="1.5" y1="-1.5" x2="6.66795" y2="-1.5" transform="matrix(-0.247566 -0.968871 0.992277 -0.124043 83.9509 56.6498)" stroke="#4A3D2E" stroke-width="3" stroke-linecap="round"/>
<line x1="1.5" y1="-1.5" x2="1.52696" y2="-1.5" transform="matrix(-0.186792 -0.982399 0.99665 -0.0817893 81.1972 47.1973)" stroke="#4A3D2E" stroke-width="3" stroke-linecap="round"/>
<path d="M104.878 25.5723C105.372 24.5519 106.776 24.4272 107.442 25.3443L122.057 45.4686C122.114 45.547 122.163 45.6307 122.204 45.7186L126.552 55.1028C126.949 55.9594 126.466 56.9655 125.549 57.1906L118.364 58.9519L103.377 61.076C103.269 61.0913 103.159 61.0947 103.05 61.0862L93.1205 60.3156C92.1708 60.2419 91.5297 59.3133 91.7971 58.3992L96.0596 43.8391C96.0829 43.7594 96.1133 43.6817 96.1495 43.607L104.878 25.5723Z" fill="url(#paint14_linear_2_614)" stroke="black"/>
<line x1="1.5" y1="-1.5" x2="9.30736" y2="-1.5" transform="matrix(-0.418347 0.908287 -0.966916 -0.255094 103.995 31.1932)" stroke="white" stroke-width="3" stroke-linecap="round"/>
<line x1="1.5" y1="-1.5" x2="6.63729" y2="-1.5" transform="matrix(-0.444765 -0.895647 0.945173 -0.326571 122.73 54.3914)" stroke="#4A3D2E" stroke-width="3" stroke-linecap="round"/>
<line x1="1.5" y1="-1.5" x2="1.51509" y2="-1.5" transform="matrix(-0.387971 -0.921671 0.958142 -0.286293 118.077 45.7562)" stroke="#4A3D2E" stroke-width="3" stroke-linecap="round"/>
<path d="M146.479 23.6309C147.067 22.6583 148.48 22.6657 149.057 23.6445L161.716 45.1416C161.765 45.2251 161.806 45.3139 161.838 45.4053L165.292 55.2119C165.605 56.1013 165.029 57.0561 164.097 57.1943L156.773 58.2793L141.654 58.9902C141.545 58.9954 141.435 58.9885 141.327 58.9697L131.509 57.2617C130.572 57.0987 130.021 56.1158 130.371 55.2314L135.987 41.0605C136.018 40.9837 136.055 40.9097 136.098 40.8389L146.479 23.6309Z" fill="url(#paint15_linear_2_614)" stroke="black"/>
<line x1="1.5" y1="-1.5" x2="9.34234" y2="-1.5" transform="matrix(-0.500136 0.865947 -0.938221 -0.346038 145.073 29.1667)" stroke="white" stroke-width="3" stroke-linecap="round"/>
<line x1="1.5" y1="-1.5" x2="6.66795" y2="-1.5" transform="matrix(-0.357386 -0.933957 0.971418 -0.237376 161.549 54.1285)" stroke="#4A3D2E" stroke-width="3" stroke-linecap="round"/>
<line x1="1.5" y1="-1.5" x2="1.52696" y2="-1.5" transform="matrix(-0.298572 -0.954387 0.980623 -0.195906 157.726 45.0556)" stroke="#4A3D2E" stroke-width="3" stroke-linecap="round"/>
<rect y="62.5" width="322" height="195" rx="5" fill="#872D2D"/>
<g opacity="0.87">
<ellipse cx="24.4031" cy="228.808" rx="12.4031" ry="11.9186" fill="#582F28"/>
<ellipse cx="31.5969" cy="238.581" rx="12.4031" ry="11.9186" fill="#582F28"/>
<ellipse cx="29.8605" cy="216.89" rx="8.68217" ry="7.38953" fill="#582F28"/>
<ellipse cx="34.3256" cy="240.727" rx="6.20155" ry="5.48256" fill="#401D18"/>
</g>
<g opacity="0.87">
<ellipse cx="139.826" cy="109.568" rx="24.8062" ry="25" transform="rotate(77.3589 139.826 109.568)" fill="#582F28"/>
<ellipse cx="122.971" cy="128.093" rx="24.8062" ry="25" transform="rotate(77.3589 122.971 128.093)" fill="#582F28"/>
<ellipse cx="166.608" cy="114.747" rx="17.3643" ry="15.5" transform="rotate(77.3589 166.608 114.747)" fill="#582F28"/>
<ellipse cx="119.775" cy="134.403" rx="12.4031" ry="11.5" transform="rotate(77.3589 119.775 134.403)" fill="#401D18"/>
</g>
<mask id="path-58-inside-9_2_614" fill="white">
<path d="M0 76.5H18V243.5H0V76.5Z"/>
</mask>
<path d="M0 76.5H18V243.5H0V76.5Z" fill="#8A6C52"/>
<path d="M18 76.5H17V243.5H18H19V76.5H18ZM0 243.5H1V76.5H0H-1V243.5H0Z" fill="black" mask="url(#path-58-inside-9_2_614)"/>
<mask id="path-60-inside-10_2_614" fill="white">
<path d="M304 76.5H322V243.5H304V76.5Z"/>
</mask>
<path d="M304 76.5H322V243.5H304V76.5Z" fill="#8A6C52"/>
<path d="M322 76.5H321V243.5H322H323V76.5H322ZM304 243.5H305V76.5H304H303V243.5H304Z" fill="black" mask="url(#path-60-inside-10_2_614)"/>
<mask id="path-62-inside-11_2_614" fill="white">
<path d="M228 76.5H246V243.5H228V76.5Z"/>
</mask>
<path d="M228 76.5H246V243.5H228V76.5Z" fill="#8A6C52"/>
<path d="M246 76.5H245V243.5H246H247V76.5H246ZM228 243.5H229V76.5H228H227V243.5H228Z" fill="black" mask="url(#path-62-inside-11_2_614)"/>
<mask id="path-64-inside-12_2_614" fill="white">
<path d="M76 76.5H94V243.5H76V76.5Z"/>
</mask>
<path d="M76 76.5H94V243.5H76V76.5Z" fill="#8A6C52"/>
<path d="M94 76.5H93V243.5H94H95V76.5H94ZM76 243.5H77V76.5H76H75V243.5H76Z" fill="black" mask="url(#path-64-inside-12_2_614)"/>
<mask id="path-66-inside-13_2_614" fill="white">
<path d="M152 76.5H170V243.5H152V76.5Z"/>
</mask>
<path d="M152 76.5H170V243.5H152V76.5Z" fill="#8A6C52"/>
<path d="M170 76.5H169V243.5H170H171V76.5H170ZM152 243.5H153V76.5H152H151V243.5H152Z" fill="black" mask="url(#path-66-inside-13_2_614)"/>
<mask id="path-68-inside-14_2_614" fill="white">
<path d="M18 62.5H76V77.5H18V62.5Z"/>
</mask>
<path d="M18 62.5H76V77.5H18V62.5Z" fill="#8A6C52"/>
<path d="M18 62.5V63.5H76V62.5V61.5H18V62.5ZM76 77.5V76.5H18V77.5V78.5H76V77.5Z" fill="black" mask="url(#path-68-inside-14_2_614)"/>
<mask id="path-70-inside-15_2_614" fill="white">
<path d="M18 242.5H76V257.5H18V242.5Z"/>
</mask>
<path d="M18 242.5H76V257.5H18V242.5Z" fill="#8A6C52"/>
<path d="M18 242.5V243.5H76V242.5V241.5H18V242.5ZM76 257.5V256.5H18V257.5V258.5H76V257.5Z" fill="black" mask="url(#path-70-inside-15_2_614)"/>
<mask id="path-72-inside-16_2_614" fill="white">
<path d="M94 242.5H152V257.5H94V242.5Z"/>
</mask>
<path d="M94 242.5H152V257.5H94V242.5Z" fill="#8A6C52"/>
<path d="M94 242.5V243.5H152V242.5V241.5H94V242.5ZM152 257.5V256.5H94V257.5V258.5H152V257.5Z" fill="black" mask="url(#path-72-inside-16_2_614)"/>
<mask id="path-74-inside-17_2_614" fill="white">
<path d="M170 242.5H228V257.5H170V242.5Z"/>
</mask>
<path d="M170 242.5H228V257.5H170V242.5Z" fill="#8A6C52"/>
<path d="M170 242.5V243.5H228V242.5V241.5H170V242.5ZM228 257.5V256.5H170V257.5V258.5H228V257.5Z" fill="black" mask="url(#path-74-inside-17_2_614)"/>
<mask id="path-76-inside-18_2_614" fill="white">
<path d="M246 242.5H304V257.5H246V242.5Z"/>
</mask>
<path d="M246 242.5H304V257.5H246V242.5Z" fill="#8A6C52"/>
<path d="M246 242.5V243.5H304V242.5V241.5H246V242.5ZM304 257.5V256.5H246V257.5V258.5H304V257.5Z" fill="black" mask="url(#path-76-inside-18_2_614)"/>
<mask id="path-78-inside-19_2_614" fill="white">
<path d="M94 62.5H152V77.5H94V62.5Z"/>
</mask>
<path d="M94 62.5H152V77.5H94V62.5Z" fill="#8A6C52"/>
<path d="M94 62.5V63.5H152V62.5V61.5H94V62.5ZM152 77.5V76.5H94V77.5V78.5H152V77.5Z" fill="black" mask="url(#path-78-inside-19_2_614)"/>
<mask id="path-80-inside-20_2_614" fill="white">
<path d="M170 62.5H228V77.5H170V62.5Z"/>
</mask>
<path d="M170 62.5H228V77.5H170V62.5Z" fill="#8A6C52"/>
<path d="M170 62.5V63.5H228V62.5V61.5H170V62.5ZM228 77.5V76.5H170V77.5V78.5H228V77.5Z" fill="black" mask="url(#path-80-inside-20_2_614)"/>
<mask id="path-82-inside-21_2_614" fill="white">
<path d="M246 62.5H304V77.5H246V62.5Z"/>
</mask>
<path d="M246 62.5H304V77.5H246V62.5Z" fill="#8A6C52"/>
<path d="M246 62.5V63.5H304V62.5V61.5H246V62.5ZM304 77.5V76.5H246V77.5V78.5H304V77.5Z" fill="black" mask="url(#path-82-inside-21_2_614)"/>
<mask id="path-84-inside-22_2_614" fill="white">
<path d="M0 67.5C0 64.7386 2.23858 62.5 5 62.5H18V76.5H0V67.5Z"/>
</mask>
<path d="M0 67.5C0 64.7386 2.23858 62.5 5 62.5H18V76.5H0V67.5Z" fill="#8A6C52"/>
<path d="M-1 67.5C-1 64.1863 1.68629 61.5 5 61.5H18V63.5H5C2.79086 63.5 1 65.2909 1 67.5H-1ZM1 67.5M18 76.5H0H18M-1 76.5V67.5C-1 64.1863 1.68629 61.5 5 61.5V63.5C2.79086 63.5 1 65.2909 1 67.5V76.5H-1ZM1 76.5M18 62.5V76.5V62.5" fill="black" mask="url(#path-84-inside-22_2_614)"/>
<mask id="path-86-inside-23_2_614" fill="white">
<path d="M76 62.5H94V76.5H76V62.5Z"/>
</mask>
<path d="M76 62.5H94V76.5H76V62.5Z" fill="#8A6C52"/>
<path d="M76 62.5V63.5H94V62.5V61.5H76V62.5Z" fill="black" mask="url(#path-86-inside-23_2_614)"/>
<mask id="path-88-inside-24_2_614" fill="white">
<path d="M152 62.5H170V76.5H152V62.5Z"/>
</mask>
<path d="M152 62.5H170V76.5H152V62.5Z" fill="#8A6C52"/>
<path d="M152 62.5V63.5H170V62.5V61.5H152V62.5Z" fill="black" mask="url(#path-88-inside-24_2_614)"/>
<mask id="path-90-inside-25_2_614" fill="white">
<path d="M76 243.5H94V257.5H76V243.5Z"/>
</mask>
<path d="M76 243.5H94V257.5H76V243.5Z" fill="#8A6C52"/>
<path d="M94 257.5V256.5H76V257.5V258.5H94V257.5Z" fill="black" mask="url(#path-90-inside-25_2_614)"/>
<mask id="path-92-inside-26_2_614" fill="white">
<path d="M0 243.5H18V257.5H5C2.23858 257.5 0 255.261 0 252.5V243.5Z"/>
</mask>
<path d="M0 243.5H18V257.5H5C2.23858 257.5 0 255.261 0 252.5V243.5Z" fill="#8A6C52"/>
<path d="M0 243.5H18H0M18 258.5H5C1.68629 258.5 -1 255.814 -1 252.5H1C1 254.709 2.79086 256.5 5 256.5H18V258.5ZM5 258.5C1.68629 258.5 -1 255.814 -1 252.5V243.5H1V252.5C1 254.709 2.79086 256.5 5 256.5V258.5ZM5 256.5M18 243.5V257.5V243.5" fill="black" mask="url(#path-92-inside-26_2_614)"/>
<mask id="path-94-inside-27_2_614" fill="white">
<path d="M152 243.5H170V257.5H152V243.5Z"/>
</mask>
<path d="M152 243.5H170V257.5H152V243.5Z" fill="#8A6C52"/>
<path d="M170 257.5V256.5H152V257.5V258.5H170V257.5Z" fill="black" mask="url(#path-94-inside-27_2_614)"/>
<mask id="path-96-inside-28_2_614" fill="white">
<path d="M228 243.5H246V257.5H228V243.5Z"/>
</mask>
<path d="M228 243.5H246V257.5H228V243.5Z" fill="#8A6C52"/>
<path d="M246 257.5V256.5H228V257.5V258.5H246V257.5Z" fill="black" mask="url(#path-96-inside-28_2_614)"/>
<mask id="path-98-inside-29_2_614" fill="white">
<path d="M304 243.5H322V252.5C322 255.261 319.761 257.5 317 257.5H304V243.5Z"/>
</mask>
<path d="M304 243.5H322V252.5C322 255.261 319.761 257.5 317 257.5H304V243.5Z" fill="#8A6C52"/>
<path d="M304 243.5H322H304M323 252.5C323 255.814 320.314 258.5 317 258.5H304V256.5H317C319.209 256.5 321 254.709 321 252.5H323ZM321 252.5M304 257.5V243.5V257.5M323 243.5V252.5C323 255.814 320.314 258.5 317 258.5V256.5C319.209 256.5 321 254.709 321 252.5V243.5H323Z" fill="black" mask="url(#path-98-inside-29_2_614)"/>
<mask id="path-100-inside-30_2_614" fill="white">
<path d="M228 62.5H246V76.5H228V62.5Z"/>
</mask>
<path d="M228 62.5H246V76.5H228V62.5Z" fill="#8A6C52"/>
<path d="M228 62.5V63.5H246V62.5V61.5H228V62.5Z" fill="black" mask="url(#path-100-inside-30_2_614)"/>
<mask id="path-102-inside-31_2_614" fill="white">
<path d="M304 62.5H317C319.761 62.5 322 64.7386 322 67.5V76.5H304V62.5Z"/>
</mask>
<path d="M304 62.5H317C319.761 62.5 322 64.7386 322 67.5V76.5H304V62.5Z" fill="#8A6C52"/>
<path d="M304 61.5H317C320.314 61.5 323 64.1863 323 67.5H321C321 65.2909 319.209 63.5 317 63.5H304V61.5ZM304 63.5M322 76.5H304H322M322 76.5M304 76.5V62.5V76.5M317 61.5C320.314 61.5 323 64.1863 323 67.5V76.5H321V67.5C321 65.2909 319.209 63.5 317 63.5V61.5Z" fill="black" mask="url(#path-102-inside-31_2_614)"/>
<line x1="9.5" y1="252" x2="59.5" y2="252" stroke="#4B3C2E" stroke-width="3" stroke-linecap="round"/>
<line x1="33.5" y1="72" x2="64.5" y2="72" stroke="#4B3C2E" stroke-width="3" stroke-linecap="round"/>
<line x1="309.5" y1="152" x2="309.5" y2="114" stroke="#4B3C2E" stroke-width="3" stroke-linecap="round"/>
<line x1="309.5" y1="106" x2="309.5" y2="86" stroke="#4B3C2E" stroke-width="3" stroke-linecap="round"/>
<g opacity="0.58">
<ellipse cx="282.806" cy="207" rx="24.8062" ry="25" fill="#582F28"/>
<ellipse cx="297.194" cy="227.5" rx="24.8062" ry="25" fill="#582F28"/>
<ellipse cx="240.806" cy="216.5" rx="24.8062" ry="25" fill="#582F28"/>
<ellipse cx="293.721" cy="182" rx="17.3643" ry="15.5" fill="#582F28"/>
<ellipse cx="302.651" cy="232" rx="12.4031" ry="11.5" fill="#401D18"/>
<ellipse cx="274" cy="199" rx="9" ry="8.5" fill="#401D18"/>
</g>
<g filter="url(#filter0_d_2_614)">
<path d="M134 63H189C189.828 63 190.5 63.6716 190.5 64.5V122.469C190.5 122.954 190.265 123.409 189.87 123.69L162.37 143.267C161.849 143.637 161.151 143.637 160.63 143.267L133.13 123.69C132.735 123.409 132.5 122.954 132.5 122.469V64.5C132.5 63.6716 133.172 63 134 63Z" fill="#64533A" stroke="black"/>
<path d="M164.594 96.5L166.886 107.5H156.09L157.924 96.5H164.594Z" fill="#433527" stroke="black"/>
<mask id="path-116-inside-32_2_614" fill="white">
<path d="M155 91.5C155 88.1863 157.686 85.5 161 85.5C164.314 85.5 167 88.1863 167 91.5C167 94.8137 164.314 97.5 161 97.5C157.686 97.5 155 94.8137 155 91.5Z"/>
</mask>
<path d="M155 91.5C155 88.1863 157.686 85.5 161 85.5C164.314 85.5 167 88.1863 167 91.5C167 94.8137 164.314 97.5 161 97.5C157.686 97.5 155 94.8137 155 91.5Z" fill="#433527"/>
<path d="M154 91C154 87.4101 156.91 84.5 160.5 84.5H161.5C165.09 84.5 168 87.4101 168 91L166 91.5C166 88.7386 163.761 86.5 161 86.5C158.239 86.5 156 88.7386 156 91.5L154 91ZM156 91.5M167 97.5H155H167M160.5 97.5C156.91 97.5 154 94.5899 154 91C154 87.4101 156.91 84.5 160.5 84.5L161 86.5C158.239 86.5 156 88.7386 156 91.5C156 94.8137 158.239 97.5 161 97.5H160.5ZM161.5 84.5C165.09 84.5 168 87.4101 168 91C168 94.5899 165.09 97.5 161.5 97.5H161C163.761 97.5 166 94.8137 166 91.5C166 88.7386 163.761 86.5 161 86.5L161.5 84.5Z" fill="black" mask="url(#path-116-inside-32_2_614)"/>
<path d="M162.466 95.605C162.141 95.8539 161.768 96.0329 161.367 96.1319C160.967 96.2309 160.547 96.2479 160.133 96.182C159.718 96.1161 159.315 95.9685 158.949 95.7476C158.582 95.5268 158.259 95.2371 157.997 94.895C157.734 94.5529 157.539 94.1652 157.421 93.7539C157.303 93.3426 157.265 92.9158 157.309 92.498C157.353 92.0801 157.479 91.6793 157.678 91.3185C157.878 90.9577 158.148 90.6439 158.473 90.395L160.469 93L162.466 95.605Z" fill="#24190F"/>
<path d="M161.5 133C161.987 133 162.475 133.275 162.861 133.815C163.247 134.355 163.5 135.126 163.5 136C163.5 136.874 163.247 137.645 162.861 138.185C162.475 138.725 161.987 139 161.5 139C161.013 139 160.525 138.725 160.139 138.185C159.753 137.645 159.5 136.874 159.5 136C159.5 135.126 159.753 134.355 160.139 133.815C160.525 133.275 161.013 133 161.5 133Z" stroke="black"/>
<path d="M138 104.5V119.5" stroke="#9D805D" stroke-width="4" stroke-linecap="round"/>
<path d="M143 124.5L150 129.5" stroke="#9D805D" stroke-width="4" stroke-linecap="round"/>
<path d="M138 67.5H154" stroke="#9D805D" stroke-width="4" stroke-linecap="round"/>
</g>
<defs>
<filter id="filter0_d_2_614" x="128" y="62.5" width="67" height="89.545" filterUnits="userSpaceOnUse" color-interpolation-filters="sRGB">
<feFlood flood-opacity="0" result="BackgroundImageFix"/>
<feColorMatrix in="SourceAlpha" type="matrix" values="0 0 0 0 0 0 0 0 0 0 0 0 0 0 0 0 0 0 127 0" result="hardAlpha"/>
<feOffset dy="4"/>
<feGaussianBlur stdDeviation="2"/>
<feComposite in2="hardAlpha" operator="out"/>
<feColorMatrix type="matrix" values="0 0 0 0 0 0 0 0 0 0 0 0 0 0 0 0 0 0 0.25 0"/>
<feBlend mode="normal" in2="BackgroundImageFix" result="effect1_dropShadow_2_614"/>
<feBlend mode="normal" in="SourceGraphic" in2="effect1_dropShadow_2_614" result="shape"/>
</filter>
<linearGradient id="paint0_linear_2_614" x1="50.0237" y1="90.5" x2="19.4196" y2="44.3529" gradientUnits="userSpaceOnUse">
<stop stop-color="#381618"/>
<stop offset="0.730769" stop-color="#6B2A2E"/>
<stop offset="1" stop-color="#9E3E44"/>
</linearGradient>
<linearGradient id="paint1_linear_2_614" x1="168.337" y1="90.5" x2="137.733" y2="44.3529" gradientUnits="userSpaceOnUse">
<stop stop-color="#381618"/>
<stop offset="0.730769" stop-color="#6B2A2E"/>
<stop offset="1" stop-color="#9E3E44"/>
</linearGradient>
<linearGradient id="paint2_linear_2_614" x1="273.811" y1="90.5" x2="243.207" y2="44.3529" gradientUnits="userSpaceOnUse">
<stop stop-color="#381618"/>
<stop offset="0.730769" stop-color="#6B2A2E"/>
<stop offset="1" stop-color="#9E3E44"/>
</linearGradient>
<linearGradient id="paint3_linear_2_614" x1="249.006" y1="20.2222" x2="264.667" y2="64.0291" gradientUnits="userSpaceOnUse">
<stop stop-color="#E3DCCE"/>
<stop offset="0.639423" stop-color="#C7B9A2"/>
<stop offset="1" stop-color="#5D5242"/>
</linearGradient>
<linearGradient id="paint4_linear_2_614" x1="198.604" y1="90.5" x2="167.999" y2="44.3529" gradientUnits="userSpaceOnUse">
<stop stop-color="#381618"/>
<stop offset="0.730769" stop-color="#6B2A2E"/>
<stop offset="1" stop-color="#9E3E44"/>
</linearGradient>
<linearGradient id="paint5_linear_2_614" x1="235.29" y1="90.5" x2="204.686" y2="44.3529" gradientUnits="userSpaceOnUse">
<stop stop-color="#381618"/>
<stop offset="0.730769" stop-color="#6B2A2E"/>
<stop offset="1" stop-color="#9E3E44"/>
</linearGradient>
<linearGradient id="paint6_linear_2_614" x1="215.006" y1="22.2222" x2="230.667" y2="66.0291" gradientUnits="userSpaceOnUse">
<stop stop-color="#E3DCCE"/>
<stop offset="0.639423" stop-color="#C7B9A2"/>
<stop offset="1" stop-color="#5D5242"/>
</linearGradient>
<linearGradient id="paint7_linear_2_614" x1="124.314" y1="90.5" x2="93.7095" y2="44.3529" gradientUnits="userSpaceOnUse">
<stop stop-color="#381618"/>
<stop offset="0.730769" stop-color="#6B2A2E"/>
<stop offset="1" stop-color="#9E3E44"/>
</linearGradient>
<linearGradient id="paint8_linear_2_614" x1="87.6272" y1="90.5" x2="57.0231" y2="44.3529" gradientUnits="userSpaceOnUse">
<stop stop-color="#381618"/>
<stop offset="0.730769" stop-color="#6B2A2E"/>
<stop offset="1" stop-color="#9E3E44"/>
</linearGradient>
<linearGradient id="paint9_linear_2_614" x1="304.077" y1="90.5" x2="273.473" y2="44.3529" gradientUnits="userSpaceOnUse">
<stop stop-color="#381618"/>
<stop offset="0.730769" stop-color="#6B2A2E"/>
<stop offset="1" stop-color="#9E3E44"/>
</linearGradient>
<linearGradient id="paint10_linear_2_614" x1="282.285" y1="8.5" x2="307.785" y2="65.5" gradientUnits="userSpaceOnUse">
<stop stop-color="#E3DCCE"/>
<stop offset="0.639423" stop-color="#C7B9A2"/>
<stop offset="1" stop-color="#5D5242"/>
</linearGradient>
<linearGradient id="paint11_linear_2_614" x1="180.276" y1="17.5164" x2="194.55" y2="66.9902" gradientUnits="userSpaceOnUse">
<stop stop-color="#E3DCCE"/>
<stop offset="0.639423" stop-color="#C7B9A2"/>
<stop offset="1" stop-color="#5D5242"/>
</linearGradient>
<linearGradient id="paint12_linear_2_614" x1="22.2846" y1="7.5" x2="47.7846" y2="64.5" gradientUnits="userSpaceOnUse">
<stop stop-color="#E3DCCE"/>
<stop offset="0.639423" stop-color="#C7B9A2"/>
<stop offset="1" stop-color="#5D5242"/>
</linearGradient>
<linearGradient id="paint13_linear_2_614" x1="67.3303" y1="21.5987" x2="77.8475" y2="66.9165" gradientUnits="userSpaceOnUse">
<stop stop-color="#E3DCCE"/>
<stop offset="0.639423" stop-color="#C7B9A2"/>
<stop offset="1" stop-color="#5D5242"/>
</linearGradient>
<linearGradient id="paint14_linear_2_614" x1="99.2031" y1="23.6996" x2="118.774" y2="65.7089" gradientUnits="userSpaceOnUse">
<stop stop-color="#E3DCCE"/>
<stop offset="0.639423" stop-color="#C7B9A2"/>
<stop offset="1" stop-color="#5D5242"/>
</linearGradient>
<linearGradient id="paint15_linear_2_614" x1="141.006" y1="21.2222" x2="156.667" y2="65.0291" gradientUnits="userSpaceOnUse">
<stop stop-color="#E3DCCE"/>
<stop offset="0.639423" stop-color="#C7B9A2"/>
<stop offset="1" stop-color="#5D5242"/>
</linearGradient>
</defs>
</svg>
