<svg width="322" height="182" viewBox="0 0 322 182" fill="none" xmlns="http://www.w3.org/2000/svg">
<path d="M57.0078 42.5H263.11C280.31 42.5001 295.108 54.6673 298.432 71.543L317.135 166.5H4.77539L21.5654 72.1904C24.6236 55.0124 39.5597 42.5 57.0078 42.5Z" fill="#271112" stroke="#433424" stroke-width="8"/>
<ellipse cx="99.3439" cy="62.7755" rx="25.7119" ry="12.5765" fill="#1F0F11"/>
<ellipse cx="77.513" cy="64.9949" rx="17.4647" ry="12.5765" fill="#1F0F11"/>
<ellipse cx="239.546" cy="64.9949" rx="17.4647" ry="12.5765" fill="#1F0F11"/>
<ellipse cx="264.773" cy="63.5153" rx="25.2268" ry="12.5765" fill="#1F0F11"/>
<ellipse cx="126.996" cy="63.8852" rx="26.197" ry="13.6862" fill="#1F0F11"/>
<ellipse cx="163.381" cy="62.7755" rx="25.7119" ry="12.5765" fill="#1F0F11"/>
<ellipse cx="184.727" cy="59.0765" rx="17.9498" ry="12.5765" fill="#1F0F11"/>
<ellipse cx="213.835" cy="61.2959" rx="25.7119" ry="12.5765" fill="#1F0F11"/>
<ellipse cx="54.7119" cy="64.9949" rx="25.7119" ry="12.5765" fill="#1F0F11"/>
<path d="M56.7441 3.64062C57.5342 2.64679 59.1253 3.02318 59.3867 4.26562L68.2949 46.6025L68.2988 46.6191L68.3037 46.6357L72.4941 61.5264C72.7331 62.3756 72.1916 63.2473 71.3242 63.4082L62.7256 65.002L46.0293 65.9844C45.8929 65.9924 45.7556 65.9822 45.6221 65.9531L33.8291 63.3867C33.0907 63.226 32.5875 62.5408 32.6543 61.7881L34.4688 41.373C34.4833 41.2097 34.5245 41.0494 34.5908 40.8994L43.8535 19.9375C43.9052 19.8205 43.9721 19.7105 44.0518 19.6104L56.7441 3.64062Z" fill="url(#paint0_linear_4_3)" stroke="black"/>
<line x1="61.765" y1="49.6767" x2="63.1767" y2="56.735" stroke="white" stroke-width="3" stroke-linecap="round"/>
<line x1="48.1588" y1="25.1152" x2="50.0526" y2="20.3412" stroke="#4A3D2E" stroke-width="3" stroke-linecap="round"/>
<line x1="53.584" y1="14.4199" x2="53.9199" y2="13.916" stroke="#4A3D2E" stroke-width="3" stroke-linecap="round"/>
<path d="M262.45 4.9668C261.653 4.00641 260.099 4.38335 259.831 5.60254L250.487 48.1074L250.484 48.124L250.479 48.1406L246.109 62.998C245.857 63.8555 246.407 64.7422 247.287 64.8984L256.326 66.502L273.794 67.4863C273.925 67.4937 274.056 67.4837 274.185 67.457L286.58 64.875C287.327 64.7193 287.838 64.0274 287.768 63.2676L285.875 42.8877C285.859 42.7183 285.815 42.5529 285.743 42.3984L276.071 21.4473C276.017 21.3289 275.947 21.2184 275.863 21.1182L262.45 4.9668Z" fill="url(#paint1_linear_4_3)" stroke="black"/>
<line x1="1.5" y1="-1.5" x2="8.71598" y2="-1.5" transform="matrix(-0.204539 0.978858 0.982166 0.188014 259.09 50.5)" stroke="white" stroke-width="3" stroke-linecap="round"/>
<line x1="267.1" y1="18.8" x2="271.3" y2="24.4" stroke="#4A3D2E" stroke-width="3" stroke-linecap="round"/>
<line x1="1.5" y1="-1.5" x2="2.5" y2="-1.5" transform="matrix(-3.98553e-06 -1 -1 3.65119e-06 262 16.5)" stroke="#4A3D2E" stroke-width="3" stroke-linecap="round"/>
<path d="M83.2604 32.268C83.6979 31.154 85.1995 30.9755 85.8856 31.956L95.8953 46.269C95.9469 46.3428 95.992 46.4214 96.0296 46.5033L99.1209 53.2451C99.5018 54.0757 99.0583 55.0514 98.1817 55.3096L93.8655 56.5796L83.6501 58.3894C83.5302 58.4107 83.4079 58.4171 83.2864 58.4088L77.0921 57.9874C76.1758 57.9249 75.5301 57.0608 75.7301 56.1643L78.143 45.3478C78.1598 45.2725 78.182 45.1986 78.2101 45.1269L83.2604 32.268Z" fill="url(#paint2_linear_4_3)" stroke="black"/>
<line x1="91.5583" y1="46.9394" x2="91.7973" y2="52.9661" stroke="white" stroke-width="3" stroke-linecap="round"/>
<line x1="1.5" y1="-1.5" x2="0.808564" y2="-1.5" transform="matrix(-0.38706 -0.922055 0.942222 -0.334989 85.8936 38.6286)" stroke="#4A3D2E" stroke-width="3" stroke-linecap="round"/>
<path d="M112.66 30.0166C113.231 28.9648 114.743 28.972 115.304 30.0293L123.48 45.4629C123.523 45.5425 123.558 45.6261 123.585 45.7119L125.825 52.7822C126.101 53.6534 125.541 54.5672 124.64 54.7158L120.2 55.4463L109.84 55.9883C109.718 55.9946 109.596 55.986 109.477 55.9629L103.381 54.7842C102.479 54.6096 101.944 53.6728 102.253 52.8076L105.976 42.3691C106.001 42.2966 106.033 42.2259 106.069 42.1582L112.66 30.0166Z" fill="url(#paint3_linear_4_3)" stroke="black"/>
<line x1="110.123" y1="45.1198" x2="109.62" y2="51.1302" stroke="white" stroke-width="3" stroke-linecap="round"/>
<line x1="1.5" y1="-1.5" x2="0.808564" y2="-1.5" transform="matrix(-0.270929 -0.962599 0.976222 -0.216775 115.625 36.7222)" stroke="#4A3D2E" stroke-width="3" stroke-linecap="round"/>
<path d="M141.861 29.1582C142.662 28.2579 144.144 28.6208 144.438 29.7891L146.46 37.832C146.509 38.0268 146.581 38.2151 146.675 38.3926L151.48 47.4629C151.523 47.5425 151.558 47.6261 151.585 47.7119L153.825 54.7822C154.101 55.6534 153.541 56.5672 152.64 56.7158L148.2 57.4463L137.84 57.9883C137.718 57.9946 137.596 57.986 137.477 57.9629L131.381 56.7842C130.479 56.6096 129.944 55.6728 130.253 54.8076L134.027 44.2236L134.034 44.2051L134.039 44.1855L136.36 35.5859C136.421 35.3614 136.532 35.1533 136.687 34.9795L141.861 29.1582Z" fill="url(#paint4_linear_4_3)" stroke="black"/>
<line x1="146.505" y1="49.9949" x2="146.513" y2="52.38" stroke="white" stroke-width="3" stroke-linecap="round"/>
<line x1="1.5" y1="-1.5" x2="0.808564" y2="-1.5" transform="matrix(-0.270929 -0.962599 0.976222 -0.216775 142.625 35.7222)" stroke="#4A3D2E" stroke-width="3" stroke-linecap="round"/>
<path d="M168.455 30.7119C168.728 29.3642 170.52 29.0633 171.218 30.248L181.464 47.6367C181.52 47.7319 181.566 47.8333 181.6 47.9385L183.811 54.7988C184.092 55.673 183.529 56.5924 182.622 56.7393L178.202 57.4551L167.836 57.9883C167.717 57.9944 167.597 57.9862 167.479 57.9639L161.071 56.7461C160.254 56.5907 159.718 55.799 159.879 54.9824L161.42 47.1553C161.455 46.9774 161.522 46.8073 161.618 46.6533L166.734 38.4199C166.891 38.1672 167.002 37.8883 167.062 37.5967L168.455 30.7119Z" fill="url(#paint5_linear_4_3)" stroke="black"/>
<line x1="166.123" y1="48.1198" x2="165.62" y2="54.1302" stroke="white" stroke-width="3" stroke-linecap="round"/>
<line x1="1.5" y1="-1.5" x2="0.808564" y2="-1.5" transform="matrix(-0.270929 -0.962599 0.976222 -0.216775 172.625 37.7222)" stroke="#4A3D2E" stroke-width="3" stroke-linecap="round"/>
<path d="M199.241 32.4734C199.623 31.4423 200.949 31.1602 201.719 31.9458L207.421 37.7636C207.531 37.8763 207.623 38.0065 207.693 38.1479L212.005 46.8442L212.004 46.8432L215.3 53.6833C215.697 54.5065 215.272 55.4906 214.401 55.7655L210.11 57.1179L199.931 59.1232C199.812 59.1467 199.689 59.1555 199.568 59.1495L193.102 58.8344C192.257 58.7931 191.613 58.06 191.681 57.2159L192.467 47.4374C192.482 47.241 192.537 47.0493 192.627 46.8739L197.237 37.8685L197.25 37.842L197.261 37.8148L199.241 32.4734Z" fill="url(#paint6_linear_4_3)" stroke="black"/>
<line x1="207.577" y1="48.9191" x2="207.783" y2="52.8324" stroke="white" stroke-width="3" stroke-linecap="round"/>
<line x1="1.5" y1="-1.5" x2="0.808564" y2="-1.5" transform="matrix(-0.404656 -0.914469 0.935631 -0.352981 203.934 37.6111)" stroke="#4A3D2E" stroke-width="3" stroke-linecap="round"/>
<path d="M231.66 33.0166C232.231 31.9648 233.743 31.972 234.304 33.0293L237.485 39.0352C237.549 39.1546 237.622 39.2683 237.704 39.376L243.79 47.3916C243.943 47.5938 244.043 47.8319 244.079 48.083L245.278 56.3398C245.378 57.0277 244.992 57.6943 244.346 57.9502L238.326 60.333C238.076 60.4321 237.803 60.4625 237.537 60.4199L228.701 59.0059L222.381 57.7842C221.479 57.6096 220.944 56.6728 221.253 55.8076L224.976 45.3691C225.001 45.2966 225.033 45.2259 225.069 45.1582L231.66 33.0166Z" fill="url(#paint7_linear_4_3)" stroke="black"/>
<line x1="239.123" y1="50.1198" x2="238.62" y2="56.1302" stroke="white" stroke-width="3" stroke-linecap="round"/>
<line x1="1.5" y1="-1.5" x2="0.808564" y2="-1.5" transform="matrix(-0.270929 -0.962599 0.976222 -0.216775 235.625 39.7222)" stroke="#4A3D2E" stroke-width="3" stroke-linecap="round"/>
<mask id="mask0_4_3" style="mask-type:alpha" maskUnits="userSpaceOnUse" x="0" y="2" width="322" height="181">
<path d="M57.0078 42.5H263.11C280.31 42.5001 295.108 54.6673 298.432 71.543L317.135 166.5H4.77539L21.5654 72.1904C24.6236 55.0124 39.5597 42.5 57.0078 42.5Z" fill="#271112" stroke="#433424" stroke-width="8"/>
<ellipse cx="99.3439" cy="62.7755" rx="25.7119" ry="12.5765" fill="#1F0F11"/>
<ellipse cx="77.513" cy="64.9949" rx="17.4647" ry="12.5765" fill="#1F0F11"/>
<ellipse cx="239.546" cy="64.9949" rx="17.4647" ry="12.5765" fill="#1F0F11"/>
<ellipse cx="264.773" cy="63.5153" rx="25.2268" ry="12.5765" fill="#1F0F11"/>
<ellipse cx="126.996" cy="63.8852" rx="26.197" ry="13.6862" fill="#1F0F11"/>
<ellipse cx="163.381" cy="62.7755" rx="25.7119" ry="12.5765" fill="#1F0F11"/>
<ellipse cx="184.727" cy="59.0765" rx="17.9498" ry="12.5765" fill="#1F0F11"/>
<ellipse cx="213.835" cy="61.2959" rx="25.7119" ry="12.5765" fill="#1F0F11"/>
<ellipse cx="54.7119" cy="64.9949" rx="25.7119" ry="12.5765" fill="#1F0F11"/>
<path d="M56.7441 3.64062C57.5342 2.64679 59.1253 3.02318 59.3867 4.26562L68.2949 46.6025L68.2988 46.6191L68.3037 46.6357L72.4941 61.5264C72.7331 62.3756 72.1916 63.2473 71.3242 63.4082L62.7256 65.002L46.0293 65.9844C45.8929 65.9924 45.7556 65.9822 45.6221 65.9531L33.8291 63.3867C33.0907 63.226 32.5875 62.5408 32.6543 61.7881L34.4688 41.373C34.4833 41.2097 34.5245 41.0494 34.5908 40.8994L43.8535 19.9375C43.9052 19.8205 43.9721 19.7105 44.0518 19.6104L56.7441 3.64062Z" fill="url(#paint8_linear_4_3)" stroke="black"/>
<line x1="61.765" y1="49.6767" x2="63.1767" y2="56.735" stroke="white" stroke-width="3" stroke-linecap="round"/>
<line x1="48.1588" y1="25.1152" x2="50.0526" y2="20.3412" stroke="#4A3D2E" stroke-width="3" stroke-linecap="round"/>
<line x1="53.584" y1="14.4199" x2="53.9199" y2="13.916" stroke="#4A3D2E" stroke-width="3" stroke-linecap="round"/>
<path d="M262.45 4.9668C261.653 4.00641 260.099 4.38335 259.831 5.60254L250.487 48.1074L250.484 48.124L250.479 48.1406L246.109 62.998C245.857 63.8555 246.407 64.7422 247.287 64.8984L256.326 66.502L273.794 67.4863C273.925 67.4937 274.056 67.4837 274.185 67.457L286.58 64.875C287.327 64.7193 287.838 64.0274 287.768 63.2676L285.875 42.8877C285.859 42.7183 285.815 42.5529 285.743 42.3984L276.071 21.4473C276.017 21.3289 275.947 21.2184 275.863 21.1182L262.45 4.9668Z" fill="url(#paint9_linear_4_3)" stroke="black"/>
<line x1="1.5" y1="-1.5" x2="8.71598" y2="-1.5" transform="matrix(-0.204539 0.978858 0.982166 0.188014 259.09 50.5)" stroke="white" stroke-width="3" stroke-linecap="round"/>
<line x1="267.1" y1="18.8" x2="271.3" y2="24.4" stroke="#4A3D2E" stroke-width="3" stroke-linecap="round"/>
<line x1="1.5" y1="-1.5" x2="2.5" y2="-1.5" transform="matrix(-3.98553e-06 -1 -1 3.65119e-06 262 16.5)" stroke="#4A3D2E" stroke-width="3" stroke-linecap="round"/>
<path d="M83.2604 32.268C83.6979 31.154 85.1995 30.9755 85.8856 31.956L95.8953 46.269C95.9469 46.3428 95.992 46.4214 96.0296 46.5033L99.1209 53.2451C99.5018 54.0757 99.0583 55.0514 98.1817 55.3096L93.8655 56.5796L83.6501 58.3894C83.5302 58.4107 83.4079 58.4171 83.2864 58.4088L77.0921 57.9874C76.1758 57.9249 75.5301 57.0608 75.7301 56.1643L78.143 45.3478C78.1598 45.2725 78.182 45.1986 78.2101 45.1269L83.2604 32.268Z" fill="url(#paint10_linear_4_3)" stroke="black"/>
<line x1="91.5583" y1="46.9394" x2="91.7973" y2="52.9661" stroke="white" stroke-width="3" stroke-linecap="round"/>
<line x1="1.5" y1="-1.5" x2="0.808564" y2="-1.5" transform="matrix(-0.38706 -0.922055 0.942222 -0.334989 85.8936 38.6286)" stroke="#4A3D2E" stroke-width="3" stroke-linecap="round"/>
<path d="M112.66 30.0166C113.231 28.9648 114.743 28.972 115.304 30.0293L123.48 45.4629C123.523 45.5425 123.558 45.6261 123.585 45.7119L125.825 52.7822C126.101 53.6534 125.541 54.5672 124.64 54.7158L120.2 55.4463L109.84 55.9883C109.718 55.9946 109.596 55.986 109.477 55.9629L103.381 54.7842C102.479 54.6096 101.944 53.6728 102.253 52.8076L105.976 42.3691C106.001 42.2966 106.033 42.2259 106.069 42.1582L112.66 30.0166Z" fill="url(#paint11_linear_4_3)" stroke="black"/>
<line x1="110.123" y1="45.1198" x2="109.62" y2="51.1302" stroke="white" stroke-width="3" stroke-linecap="round"/>
<line x1="1.5" y1="-1.5" x2="0.808564" y2="-1.5" transform="matrix(-0.270929 -0.962599 0.976222 -0.216775 115.625 36.7222)" stroke="#4A3D2E" stroke-width="3" stroke-linecap="round"/>
<path d="M141.861 29.1582C142.662 28.2579 144.144 28.6208 144.438 29.7891L146.46 37.832C146.509 38.0268 146.581 38.2151 146.675 38.3926L151.48 47.4629C151.523 47.5425 151.558 47.6261 151.585 47.7119L153.825 54.7822C154.101 55.6534 153.541 56.5672 152.64 56.7158L148.2 57.4463L137.84 57.9883C137.718 57.9946 137.596 57.986 137.477 57.9629L131.381 56.7842C130.479 56.6096 129.944 55.6728 130.253 54.8076L134.027 44.2236L134.034 44.2051L134.039 44.1855L136.36 35.5859C136.421 35.3614 136.532 35.1533 136.687 34.9795L141.861 29.1582Z" fill="url(#paint12_linear_4_3)" stroke="black"/>
<line x1="146.505" y1="49.9949" x2="146.513" y2="52.38" stroke="white" stroke-width="3" stroke-linecap="round"/>
<line x1="1.5" y1="-1.5" x2="0.808564" y2="-1.5" transform="matrix(-0.270929 -0.962599 0.976222 -0.216775 142.625 35.7222)" stroke="#4A3D2E" stroke-width="3" stroke-linecap="round"/>
<path d="M168.455 30.7119C168.728 29.3642 170.52 29.0633 171.218 30.248L181.464 47.6367C181.52 47.7319 181.566 47.8333 181.6 47.9385L183.811 54.7988C184.092 55.673 183.529 56.5924 182.622 56.7393L178.202 57.4551L167.836 57.9883C167.717 57.9944 167.597 57.9862 167.479 57.9639L161.071 56.7461C160.254 56.5907 159.718 55.799 159.879 54.9824L161.42 47.1553C161.455 46.9774 161.522 46.8073 161.618 46.6533L166.734 38.4199C166.891 38.1672 167.002 37.8883 167.062 37.5967L168.455 30.7119Z" fill="url(#paint13_linear_4_3)" stroke="black"/>
<line x1="166.123" y1="48.1198" x2="165.62" y2="54.1302" stroke="white" stroke-width="3" stroke-linecap="round"/>
<line x1="1.5" y1="-1.5" x2="0.808564" y2="-1.5" transform="matrix(-0.270929 -0.962599 0.976222 -0.216775 172.625 37.7222)" stroke="#4A3D2E" stroke-width="3" stroke-linecap="round"/>
<path d="M199.241 32.4734C199.623 31.4423 200.949 31.1602 201.719 31.9458L207.421 37.7636C207.531 37.8763 207.623 38.0065 207.693 38.1479L212.005 46.8442L212.004 46.8432L215.3 53.6833C215.697 54.5065 215.272 55.4906 214.401 55.7655L210.11 57.1179L199.931 59.1232C199.812 59.1467 199.689 59.1555 199.568 59.1495L193.102 58.8344C192.257 58.7931 191.613 58.06 191.681 57.2159L192.467 47.4374C192.482 47.241 192.537 47.0493 192.627 46.8739L197.237 37.8685L197.25 37.842L197.261 37.8148L199.241 32.4734Z" fill="url(#paint14_linear_4_3)" stroke="black"/>
<line x1="207.577" y1="48.9191" x2="207.783" y2="52.8324" stroke="white" stroke-width="3" stroke-linecap="round"/>
<line x1="1.5" y1="-1.5" x2="0.808564" y2="-1.5" transform="matrix(-0.404656 -0.914469 0.935631 -0.352981 203.934 37.6111)" stroke="#4A3D2E" stroke-width="3" stroke-linecap="round"/>
<path d="M231.66 33.0166C232.231 31.9648 233.743 31.972 234.304 33.0293L237.485 39.0352C237.549 39.1546 237.622 39.2683 237.704 39.376L243.79 47.3916C243.943 47.5938 244.043 47.8319 244.079 48.083L245.278 56.3398C245.378 57.0277 244.992 57.6943 244.346 57.9502L238.326 60.333C238.076 60.4321 237.803 60.4625 237.537 60.4199L228.701 59.0059L222.381 57.7842C221.479 57.6096 220.944 56.6728 221.253 55.8076L224.976 45.3691C225.001 45.2966 225.033 45.2259 225.069 45.1582L231.66 33.0166Z" fill="url(#paint15_linear_4_3)" stroke="black"/>
<line x1="239.123" y1="50.1198" x2="238.62" y2="56.1302" stroke="white" stroke-width="3" stroke-linecap="round"/>
<line x1="1.5" y1="-1.5" x2="0.808564" y2="-1.5" transform="matrix(-0.270929 -0.962599 0.976222 -0.216775 235.625 39.7222)" stroke="#4A3D2E" stroke-width="3" stroke-linecap="round"/>
<path d="M32 67.5C62.3509 108.138 62.9808 132.597 32 179.5" stroke="#1C0A0B" stroke-width="2" stroke-linecap="round"/>
<path d="M287 181.5C256.649 140.862 256.019 116.403 287 69.5" stroke="#1C0A0B" stroke-width="2" stroke-linecap="round"/>
</mask>
<g mask="url(#mask0_4_3)">
<rect x="-13" y="-65.5" width="356" height="176" fill="url(#paint16_linear_4_3)" fill-opacity="0.5"/>
</g>
<defs>
<linearGradient id="paint0_linear_4_3" x1="45.2846" y1="13.5" x2="70.7846" y2="70.5" gradientUnits="userSpaceOnUse">
<stop stop-color="#5D5242"/>
<stop offset="0.360577" stop-color="#C7B9A2"/>
<stop offset="1" stop-color="#E3DCCE"/>
</linearGradient>
<linearGradient id="paint1_linear_4_3" x1="274.551" y1="15" x2="249.798" y2="72.8087" gradientUnits="userSpaceOnUse">
<stop stop-color="#5D5242"/>
<stop offset="0.360577" stop-color="#C7B9A2"/>
<stop offset="1" stop-color="#E3DCCE"/>
</linearGradient>
<linearGradient id="paint2_linear_4_3" x1="79.5711" y1="29.7408" x2="96.5444" y2="60.713" gradientUnits="userSpaceOnUse">
<stop stop-color="#5D5242"/>
<stop offset="0.360577" stop-color="#C7B9A2"/>
<stop offset="1" stop-color="#E3DCCE"/>
</linearGradient>
<linearGradient id="paint3_linear_4_3" x1="109.309" y1="27.0556" x2="122.351" y2="59.8774" gradientUnits="userSpaceOnUse">
<stop stop-color="#5D5242"/>
<stop offset="0.360577" stop-color="#C7B9A2"/>
<stop offset="1" stop-color="#E3DCCE"/>
</linearGradient>
<linearGradient id="paint4_linear_4_3" x1="137.309" y1="29.0556" x2="150.351" y2="61.8774" gradientUnits="userSpaceOnUse">
<stop stop-color="#5D5242"/>
<stop offset="0.360577" stop-color="#C7B9A2"/>
<stop offset="1" stop-color="#E3DCCE"/>
</linearGradient>
<linearGradient id="paint5_linear_4_3" x1="167.309" y1="29.0556" x2="180.351" y2="61.8774" gradientUnits="userSpaceOnUse">
<stop stop-color="#5D5242"/>
<stop offset="0.360577" stop-color="#C7B9A2"/>
<stop offset="1" stop-color="#E3DCCE"/>
</linearGradient>
<linearGradient id="paint6_linear_4_3" x1="195.304" y1="30.5579" x2="212.867" y2="61.1993" gradientUnits="userSpaceOnUse">
<stop stop-color="#5D5242"/>
<stop offset="0.360577" stop-color="#C7B9A2"/>
<stop offset="1" stop-color="#E3DCCE"/>
</linearGradient>
<linearGradient id="paint7_linear_4_3" x1="228.309" y1="30.0556" x2="241.351" y2="62.8774" gradientUnits="userSpaceOnUse">
<stop stop-color="#5D5242"/>
<stop offset="0.360577" stop-color="#C7B9A2"/>
<stop offset="1" stop-color="#E3DCCE"/>
</linearGradient>
<linearGradient id="paint8_linear_4_3" x1="45.2846" y1="13.5" x2="70.7846" y2="70.5" gradientUnits="userSpaceOnUse">
<stop stop-color="#5D5242"/>
<stop offset="0.360577" stop-color="#C7B9A2"/>
<stop offset="1" stop-color="#E3DCCE"/>
</linearGradient>
<linearGradient id="paint9_linear_4_3" x1="274.551" y1="15" x2="249.798" y2="72.8087" gradientUnits="userSpaceOnUse">
<stop stop-color="#5D5242"/>
<stop offset="0.360577" stop-color="#C7B9A2"/>
<stop offset="1" stop-color="#E3DCCE"/>
</linearGradient>
<linearGradient id="paint10_linear_4_3" x1="79.5711" y1="29.7408" x2="96.5444" y2="60.713" gradientUnits="userSpaceOnUse">
<stop stop-color="#5D5242"/>
<stop offset="0.360577" stop-color="#C7B9A2"/>
<stop offset="1" stop-color="#E3DCCE"/>
</linearGradient>
<linearGradient id="paint11_linear_4_3" x1="109.309" y1="27.0556" x2="122.351" y2="59.8774" gradientUnits="userSpaceOnUse">
<stop stop-color="#5D5242"/>
<stop offset="0.360577" stop-color="#C7B9A2"/>
<stop offset="1" stop-color="#E3DCCE"/>
</linearGradient>
<linearGradient id="paint12_linear_4_3" x1="137.309" y1="29.0556" x2="150.351" y2="61.8774" gradientUnits="userSpaceOnUse">
<stop stop-color="#5D5242"/>
<stop offset="0.360577" stop-color="#C7B9A2"/>
<stop offset="1" stop-color="#E3DCCE"/>
</linearGradient>
<linearGradient id="paint13_linear_4_3" x1="167.309" y1="29.0556" x2="180.351" y2="61.8774" gradientUnits="userSpaceOnUse">
<stop stop-color="#5D5242"/>
<stop offset="0.360577" stop-color="#C7B9A2"/>
<stop offset="1" stop-color="#E3DCCE"/>
</linearGradient>
<linearGradient id="paint14_linear_4_3" x1="195.304" y1="30.5579" x2="212.867" y2="61.1993" gradientUnits="userSpaceOnUse">
<stop stop-color="#5D5242"/>
<stop offset="0.360577" stop-color="#C7B9A2"/>
<stop offset="1" stop-color="#E3DCCE"/>
</linearGradient>
<linearGradient id="paint15_linear_4_3" x1="228.309" y1="30.0556" x2="241.351" y2="62.8774" gradientUnits="userSpaceOnUse">
<stop stop-color="#5D5242"/>
<stop offset="0.360577" stop-color="#C7B9A2"/>
<stop offset="1" stop-color="#E3DCCE"/>
</linearGradient>
<linearGradient id="paint16_linear_4_3" x1="162.5" y1="62.6611" x2="165.983" y2="110.428" gradientUnits="userSpaceOnUse">
<stop/>
<stop offset="1" stop-color="#666666" stop-opacity="0"/>
</linearGradient>
</defs>
</svg>
